<svg xmlns="http://www.w3.org/2000/svg" version="1.1" xmlns:xlink="http://www.w3.org/1999/xlink" xmlns:svgjs="http://svgjs.dev/svgjs" width="1000" height="1125" viewBox="0 0 1000 1125"><g transform="matrix(1,0,0,1,1.7053025658242404e-13,0)"><svg viewBox="0 0 320 360" data-background-color="#ffffff" preserveAspectRatio="xMidYMid meet" height="1125" width="1000" xmlns="http://www.w3.org/2000/svg" xmlns:xlink="http://www.w3.org/1999/xlink"><g id="tight-bounds" transform="matrix(1,0,0,1,0,0)"><svg viewBox="0 0 320 360" height="360" width="320"><g><svg></svg></g><g><svg viewBox="0 0 320 360" height="360" width="320"><g><path xmlns="http://www.w3.org/2000/svg" d="M20.961 227.22l3.726 4.658-1.863-6.056c-0.466-2.795-3.726 0.466-1.863 1.398M25.153 224.425c1.397 2.329 2.795 4.658 2.795 6.987 0 3.261 2.795 4.658 5.123 5.589-3.261-3.726-5.124-13.974-7.918-12.576M204.017 26.929c7.918 0 15.371-0.932 23.756 0.931 20.495 5.124 37.729 15.371 49.374 29.811l32.606 52.169c1.397 13.042 4.192 27.482 3.726 43.319 3.261 0 2.795-4.658 6.521-5.59-3.726 9.316-5.59 20.961-6.521 34.469-2.329-7.453 0-18.632 0.466-24.687-3.261 5.124-5.124 1.397-5.124-0.932 0.466-3.726-1.397-3.261-2.795-4.658-5.124-4.658-8.384-9.782-12.11-17.7 2.329-6.055 2.795-14.905-4.658-19.563-2.329-1.397-5.124-3.726-6.521-7.453-1.863-5.124-5.124-11.179-4.193-19.097 0.466-2.329-6.987 5.124-11.179 1.863-18.166-12.576-36.332-27.016-58.224-39.127-11.645 0-20.029-4.192-24.221-9.316-3.726-4.658-0.932-10.713 4.658-11.179 3.261 0 6.987-0.932 9.782 0.932 0.466-1.863 2.329-4.192 4.657-4.192M157.904 16.215l0.932 0.466c4.658 0.932 6.987 7.453 12.11 5.124 0 3.261 0.466 6.521-0.466 8.85-1.397 3.726-5.59 3.726-8.85 3.726-31.208-1.863-49.374 11.179-68.471 22.358-5.124 3.261-10.713 5.59-14.906 9.782-20.029 18.632-41.921 35.866-47.045 70.335l-4.192 38.195c-0.466 4.192-5.124 8.384-4.192 13.508l3.26 22.824c-3.261-3.261-5.124 0.932-4.192 2.795 0.466 1.397 2.329 6.055 5.124 1.863 3.726 6.987 7.453 20.495 12.576 26.55 15.837 18.632 36.332 35.4 53.101 52.169 4.192-0.932 7.453-0.932 8.384-3.727 1.397 2.795-1.397 5.59-3.726 6.056 7.453 4.658 15.837 8.85 27.016 9.781 14.44 0.932 27.948 3.261 40.524 6.522 6.521-1.863 13.042-2.795 20.029-3.261 2.329 0 3.726-3.726 6.521-4.658l0.466-4.658c2.795 4.192 2.329-1.397 0.466-4.192 3.261 2.795 4.192 5.124 5.589 6.987 0-1.397 3.726-6.521 3.727-0.466l0.931-6.055c1.397-0.932 1.863 5.124 3.261 0.931 1.397-4.192 4.192-0.932 6.987-2.329-0.932 1.863-0.466 5.59 2.794 3.261l3.727-3.261c2.329 5.59 6.055 3.261 7.918 2.329 20.495-13.042 40.99-28.413 60.553-43.784l-0.466 6.055 2.329-7.453c2.329 2.329 4.192 0.466 5.124-0.931 2.795-4.658 6.521-9.316 12.577-13.508-7.453 20.029-16.303 35.866-27.482 48.908l-4.658 5.59c0 3.261-0.932 7.453-4.658 7.918-1.863 0.466-5.59-0.932-8.384 1.863-1.397 1.863 3.261 5.59-0.466 2.795-3.261-2.329-6.521 0-10.248 0.932-2.795 0.932 1.863 3.726 2.795 5.589 0.932 1.863 1.863 3.726 1.398 6.056l-5.124-5.59c-6.055 3.261-9.782 9.316-14.906 13.974-2.329 1.863-1.397 5.124-1.397 7.918-3.261 0-6.987-0.932-8.85 0.932-1.397 1.863-0.932 4.658-0.932 7.453-4.658-0.466-5.124-7.453-9.315-6.056-4.192 0.932-8.85 1.397-12.577 3.727 2.795 5.59-4.658 2.329-3.726 3.26-6.987-4.192-13.042-7.453-20.495-4.658-15.837-5.124-35.4-2.795-49.84-0.931 0-2.329 0.466-4.658-0.466-5.124-0.932 2.329-3.726 1.397-3.26 1.397-8.85-6.055-17.7-9.782-27.016-14.905-8.384 0.932-16.303-3.261-18.632-5.59-6.521-6.055-13.974-2.795-20.029-4.192-13.042-3.261-17.7-16.769-19.098-26.084-0.932-4.658-4.658-6.521-6.055-6.056-6.055-19.563-15.371-37.263-22.824-55.429-1.863-4.658-1.397-9.316-1.397-14.44 2.329 0.932 4.658 0.466 4.192-2.794-2.329-15.371-7.918-27.016-13.974-38.195 3.261-15.837 3.726-34.469 11.179-48.443 6.521-12.576 18.632-19.098 27.016-29.811 2.795-3.726 2.795-8.85 5.59-12.11 9.316-9.316 18.632-19.098 28.879-27.482 4.658-3.726 10.247 0 17.234-1.397 2.329-8.384 11.645-15.837 20.495-13.508 3.726 0.932 11.179-8.85 13.508-9.782 3.726-1.397 1.863 3.726 1.863 6.987 8.85-6.987 20.961-10.713 32.14-14.906" fill="#ff0000" fill-rule="nonzero" stroke="none" stroke-width="1" stroke-linecap="butt" stroke-linejoin="miter" stroke-miterlimit="10" stroke-dasharray="" stroke-dashoffset="0" font-family="none" font-weight="none" font-size="none" text-anchor="none" style="mix-blend-mode: normal" data-fill-palette-color="tertiary"></path></g><g transform="matrix(1,0,0,1,94.0616989399293,90)"><svg viewBox="0 0 131.8766021201414 180" height="180" width="131.8766021201414"><g><svg viewBox="0 0 131.8766021201414 180" height="180" width="131.8766021201414"><g><svg viewBox="0 0 192 262.0631669635783" height="180" width="131.8766021201414"><g transform="matrix(1,0,0,1,0,129.6128909376976)"><svg viewBox="0 0 192 132.45027602588064" height="132.45027602588064" width="192"><g><svg viewBox="0 0 192 132.45027602588064" height="132.45027602588064" width="192"><g><svg viewBox="0 0 192 75.08842559309848" height="75.08842559309848" width="192"><g transform="matrix(1,0,0,1,0,0)"><svg width="192" viewBox="2.1500000953674316 -26.5 69.54999542236328 27.200000762939453" height="75.08842559309848" data-palette-color="#ff0000"><path d="M14.05-26.5L14.05-26.5Q15.75-26.5 17.3-26.08 18.85-25.65 20-24.9L20-24.9Q21.2-24.15 21.83-23.1 22.45-22.05 22.45-20.8L22.45-20.8Q22.45-19.3 21.6-18.45 20.75-17.6 19.4-17.6L19.4-17.6Q18.05-17.6 17.15-18.35 16.25-19.1 16.25-20.5L16.25-20.5Q16.25-21.8 17-22.63 17.75-23.45 18.75-23.7L18.75-23.7Q18.3-24.45 17.18-24.98 16.05-25.5 14.75-25.5L14.75-25.5Q13.4-25.5 12.18-24.8 10.95-24.1 10-22.65 9.05-21.2 8.47-18.9 7.9-16.6 7.9-13.35L7.9-13.35Q7.9-9.15 8.88-6.68 9.85-4.2 11.45-3.15 13.05-2.1 14.9-2.1L14.9-2.1Q16.65-2.1 18.6-3.13 20.55-4.15 21.9-6.9L21.9-6.9 22.85-6.55Q22.3-4.9 21.13-3.2 19.95-1.5 18.05-0.4 16.15 0.7 13.4 0.7L13.4 0.7Q10.25 0.7 7.7-0.85 5.15-2.4 3.65-5.38 2.15-8.35 2.15-12.65L2.15-12.65Q2.15-16.85 3.68-19.98 5.2-23.1 7.9-24.8 10.6-26.5 14.05-26.5ZM32.5 0.35L32.5 0.35Q29.2 0.35 27.72-1.33 26.25-3 26.25-5.6L26.25-5.6Q26.25-7.75 27.25-9.1 28.25-10.45 29.82-11.33 31.4-12.2 33.17-12.83 34.95-13.45 36.52-14.03 38.1-14.6 39.12-15.35 40.15-16.1 40.15-17.25L40.15-17.25 40.15-20.65Q40.15-22.45 39.57-23.53 39-24.6 38.02-25.05 37.05-25.5 35.7-25.5L35.7-25.5Q34.55-25.5 33.25-25.18 31.95-24.85 31.2-23.9L31.2-23.9Q32.3-23.6 33.02-22.73 33.75-21.85 33.75-20.55L33.75-20.55Q33.75-19.15 32.82-18.35 31.9-17.55 30.5-17.55L30.5-17.55Q28.95-17.55 28.2-18.53 27.45-19.5 27.45-20.8L27.45-20.8Q27.45-22.15 28.12-23 28.8-23.85 29.9-24.6L29.9-24.6Q31.1-25.4 32.97-25.95 34.85-26.5 37.15-26.5L37.15-26.5Q39.3-26.5 40.87-26.03 42.45-25.55 43.5-24.5L43.5-24.5Q44.75-23.35 45.15-21.63 45.55-19.9 45.55-17.45L45.55-17.45 45.55-3.65Q45.55-2.45 45.85-1.9 46.15-1.35 46.95-1.35L46.95-1.35Q47.55-1.35 48.05-1.65 48.55-1.95 49.05-2.35L49.05-2.35 49.55-1.5Q48.5-0.65 47.42-0.15 46.35 0.35 44.7 0.35L44.7 0.35Q41.95 0.35 41.07-0.95 40.2-2.25 40.15-3.95L40.15-3.95Q38.7-1.5 36.72-0.58 34.75 0.35 32.5 0.35ZM35.25-2.05L35.25-2.05Q36.55-2.05 37.8-2.78 39.05-3.5 40.15-5.25L40.15-5.25 40.15-15.2Q39.45-14.15 38.02-13.5 36.6-12.85 35.12-12.08 33.65-11.3 32.6-10 31.55-8.7 31.55-6.4L31.55-6.4Q31.55-4.15 32.6-3.1 33.65-2.05 35.25-2.05ZM67.15-26.5L67.15-26.5Q68.6-26.5 69.62-25.9 70.65-25.3 71.17-24.38 71.7-23.45 71.7-22.3L71.7-22.3Q71.7-20.85 70.82-19.83 69.95-18.8 68.5-18.8L68.5-18.8Q67.25-18.8 66.37-19.55 65.5-20.3 65.5-21.6L65.5-21.6Q65.5-22.7 66.07-23.48 66.65-24.25 67.4-24.7L67.4-24.7Q66.9-25.1 66.2-25.05L66.2-25.05Q64.4-24.95 63.02-23.58 61.65-22.2 60.85-20.25 60.05-18.3 60.05-16.65L60.05-16.65 60.05-5.15Q60.05-2.7 61.4-1.88 62.75-1.05 65.15-1.05L65.15-1.05 65.15 0Q64-0.05 61.87-0.13 59.75-0.2 57.4-0.2L57.4-0.2Q55.6-0.2 53.8-0.13 52-0.05 51.05 0L51.05 0 51.05-1.05Q53-1.05 53.82-1.8 54.65-2.55 54.65-4.65L54.65-4.65 54.65-20.35Q54.65-22.6 53.9-23.68 53.15-24.75 51.05-24.75L51.05-24.75 51.05-25.8Q52.65-25.65 54.15-25.65L54.15-25.65Q55.85-25.65 57.32-25.83 58.8-26 60.05-26.35L60.05-26.35 60.05-20.6Q60.65-22.05 61.65-23.4 62.65-24.75 64.05-25.63 65.45-26.5 67.15-26.5Z" opacity="1" transform="matrix(1,0,0,1,0,0)" fill="#ff0000" class="undefined-text-0" data-fill-palette-color="primary" id="text-0"></path></svg></g></svg></g><g transform="matrix(1,0,0,1,0,86.04562900934577)"><svg viewBox="0 0 192 46.40464701653486" height="46.40464701653486" width="192"><g transform="matrix(1,0,0,1,0,0)"><svg width="192" viewBox="4.25 -38.70000076293945 162.80999755859375 39.35000228881836" height="46.40464701653486" data-palette-color="#ca3433"><path d="M17.95-18.2Q25.45-16.9 25.45-9.7L25.45-9.7Q25.45-4.8 22.15-2.4 18.85 0 13.05 0L13.05 0 4.25 0 4.25-34.4 11.7-34.4Q17.65-34.4 20.85-32.2 24.05-30 24.05-25.75L24.05-25.75Q24.05-22.7 22.38-20.78 20.7-18.85 17.95-18.2L17.95-18.2ZM12.15-30.85L8.9-30.85 8.9-19.75 13.2-19.75Q16.1-19.75 17.73-21.23 19.35-22.7 19.35-25.35L19.35-25.35Q19.35-28.25 17.57-29.55 15.8-30.85 12.15-30.85L12.15-30.85ZM13.1-3.65Q16.75-3.65 18.7-5.08 20.65-6.5 20.65-9.8L20.65-9.8Q20.65-16.3 13.6-16.3L13.6-16.3 8.9-16.3 8.9-3.65 13.1-3.65ZM62.99-6Q62.99-4.4 63.44-3.63 63.89-2.85 64.84-2.45L64.84-2.45 63.89 0.6Q61.94 0.3 60.84-0.6 59.74-1.5 59.29-3.35L59.29-3.35Q56.74 0.65 52.14 0.65L52.14 0.65Q48.64 0.65 46.59-1.53 44.54-3.7 44.54-7.35L44.54-7.35Q44.54-11.55 47.29-13.75 50.04-15.95 55.14-15.95L55.14-15.95 58.54-15.95 58.54-18.2Q58.54-20.95 57.42-22.18 56.29-23.4 53.74-23.4L53.74-23.4Q50.99-23.4 47.34-22L47.34-22 46.24-25.15Q50.64-26.95 54.44-26.95L54.44-26.95Q62.99-26.95 62.99-18.4L62.99-18.4 62.99-6ZM53.19-2.75Q56.69-2.75 58.54-6.85L58.54-6.85 58.54-13.05 55.64-13.05Q49.14-13.05 49.14-7.6L49.14-7.6Q49.14-5.25 50.19-4 51.24-2.75 53.19-2.75L53.19-2.75ZM93.08-26.95Q97.63-26.95 101.18-23.95L101.18-23.95 99.28-21.3Q97.68-22.4 96.28-22.95 94.88-23.5 93.33-23.5L93.33-23.5Q91.28-23.5 90.11-22.53 88.93-21.55 88.93-19.85L88.93-19.85Q88.93-18.2 90.06-17.25 91.18-16.3 94.33-15.3L94.33-15.3Q98.28-14.05 100.08-12.25 101.88-10.45 101.88-7.3L101.88-7.3Q101.88-3.6 99.18-1.48 96.48 0.65 92.43 0.65L92.43 0.65Q87.08 0.65 83.38-2.9L83.38-2.9 85.68-5.4Q88.83-2.85 92.33-2.85L92.33-2.85Q94.53-2.85 95.88-3.95 97.23-5.05 97.23-7L97.23-7Q97.23-8.4 96.76-9.25 96.28-10.1 95.06-10.78 93.83-11.45 91.48-12.2L91.48-12.2Q87.73-13.45 86.08-15.2 84.43-16.95 84.43-19.65L84.43-19.65Q84.43-21.75 85.53-23.4 86.63-25.05 88.58-26 90.53-26.95 93.08-26.95L93.08-26.95ZM122.82-26.3L127.32-26.3 127.32 0 122.82 0 122.82-26.3ZM125.07-38.7Q126.37-38.7 127.2-37.85 128.02-37 128.02-35.75L128.02-35.75Q128.02-34.5 127.22-33.68 126.42-32.85 125.07-32.85L125.07-32.85Q123.77-32.85 122.95-33.68 122.12-34.5 122.12-35.75L122.12-35.75Q122.12-37 122.95-37.85 123.77-38.7 125.07-38.7L125.07-38.7ZM159.76-26.95Q161.86-26.95 163.61-26.25 165.36-25.55 166.96-24.1L166.96-24.1 164.96-21.4Q163.76-22.35 162.56-22.83 161.36-23.3 159.96-23.3L159.96-23.3Q157.01-23.3 155.39-20.8 153.76-18.3 153.76-13L153.76-13Q153.76-3.1 159.96-3.1L159.96-3.1Q161.36-3.1 162.51-3.58 163.66-4.05 164.96-5L164.96-5 167.06-2.25Q163.86 0.65 159.81 0.65L159.81 0.65Q154.76 0.65 151.89-2.85 149.01-6.35 149.01-12.95L149.01-12.95Q149.01-17.25 150.34-20.4 151.66-23.55 154.09-25.25 156.51-26.95 159.76-26.95L159.76-26.95Z" opacity="1" transform="matrix(1,0,0,1,0,0)" fill="#ca3433" class="undefined-text-1" data-fill-palette-color="secondary" id="text-1"></path></svg></g></svg></g></svg></g></svg></g><g transform="matrix(1,0,0,1,36.672000000000004,0)"><svg viewBox="0 0 118.65599999999999 118.6556875214503" height="118.6556875214503" width="118.65599999999999"><g><svg xmlns="http://www.w3.org/2000/svg" xmlns:xlink="http://www.w3.org/1999/xlink" version="1.1" x="0" y="0" viewBox="59 59 394.0020446777344 394.0010070800781" style="enable-background:new 0 0 512 512;" xml:space="preserve" height="118.6556875214503" width="118.65599999999999" class="icon-icon-0" data-fill-palette-color="accent" id="icon-0"><g fill="#ed2647" data-fill-palette-color="accent"><g fill="#ed2647" data-fill-palette-color="accent"><path d="M255.96 204.643c-28.296 0-51.317 23.021-51.317 51.317 0 28.341 23.021 51.397 51.317 51.397 28.341 0 51.397-23.057 51.397-51.397C307.357 227.664 284.301 204.643 255.96 204.643z" fill="#ed2647" data-fill-palette-color="accent"></path><path d="M440.72 223.584l-29.468-2.342c-2.13-0.17-3.916-1.676-4.445-3.747-3.698-14.482-9.399-28.256-16.946-40.938-1.094-1.838-0.897-4.169 0.49-5.798l18.978-22.286c4.389-5.154 4.077-12.939-0.709-17.725l-27.367-27.369c-2.471-2.47-5.756-3.832-9.251-3.832-3.102 0-6.111 1.104-8.476 3.117l-22.284 18.97c-1.631 1.388-3.962 1.569-5.799 0.475-12.856-7.65-26.654-13.409-41.011-17.056-2.076-0.527-3.586-2.381-3.754-4.517l-2.287-29.235C287.86 64.542 282.134 59 275.354 59h-38.738c-6.768 0-12.493 5.532-13.035 12.278l-2.339 29.39c-0.171 2.13-1.676 3.916-3.747 4.445-14.325 3.658-28.099 9.386-40.938 17.026-1.84 1.094-4.17 0.897-5.799-0.49l-22.286-18.978c-2.363-2.013-5.374-3.121-8.476-3.121-3.495 0-6.781 1.36-9.25 3.83l-27.37 27.368c-4.786 4.786-5.102 12.571-0.713 17.725l18.97 22.285c1.387 1.629 1.568 3.96 0.475 5.799-7.64 12.839-13.399 26.612-17.057 40.938-0.529 2.071-2.376 3.576-4.507 3.747l-29.267 2.339C64.532 224.124 59 229.849 59 236.617v38.738c0 6.779 5.542 12.506 12.3 13.036l29.36 2.287c2.136 0.168 3.927 1.677 4.455 3.754 3.646 14.356 9.374 28.154 17.025 41.011 1.094 1.838 0.897 4.169-0.49 5.799l-18.978 22.285c-4.388 5.152-4.077 12.938 0.709 17.726l27.368 27.368c2.47 2.47 5.755 3.831 9.25 3.831 3.102 0 6.111-1.106 8.474-3.119l22.286-18.974c0.927-0.789 2.081-1.186 3.243-1.186 0.879 0 1.764 0.247 2.556 0.719 12.686 7.548 26.459 13.28 40.938 16.978 2.071 0.527 3.577 2.377 3.747 4.507l2.342 29.344c0.541 6.747 6.267 12.28 13.035 12.28h38.732c6.78 0 12.507-5.543 13.037-12.303l2.289-29.437c0.167-2.137 1.677-3.928 3.754-4.455 14.51-3.686 28.308-9.386 41.011-16.945 1.838-1.095 4.168-0.896 5.799 0.49l22.286 18.978c2.363 2.013 5.373 3.122 8.475 3.121 3.495 0 6.781-1.36 9.252-3.83l27.369-27.367c4.786-4.786 5.101-12.572 0.713-17.727l-18.97-22.284c-1.388-1.63-1.568-3.961-0.475-5.799 7.558-12.7 13.29-26.498 16.976-41.011 0.527-2.077 2.382-3.587 4.518-3.754l29.313-2.289c6.76-0.53 12.303-6.257 12.303-13.037v-38.732C453 229.851 447.467 224.125 440.72 223.584zM255.96 365.926c-60.635 0-109.966-49.33-109.966-109.966 0-60.635 49.331-109.966 109.966-109.966 60.636 0 109.966 49.331 109.966 109.966C365.926 316.596 316.596 365.926 255.96 365.926z" fill="#ed2647" data-fill-palette-color="accent"></path><path d="M255.96 155.994c-55.122 0-99.966 44.844-99.966 99.966 0 55.121 44.844 99.966 99.966 99.966 55.121 0 99.966-44.845 99.966-99.966C355.926 200.838 311.081 155.994 255.96 155.994zM255.96 317.357c-33.811 0-61.317-27.543-61.317-61.397 0-33.811 27.507-61.317 61.317-61.317 33.854 0 61.397 27.507 61.397 61.317C317.357 289.814 289.814 317.357 255.96 317.357z" fill="#ed2647" data-fill-palette-color="accent"></path></g></g></svg></g></svg></g><g></g></svg></g></svg></g></svg></g></svg></g><defs></defs></svg><rect width="320" height="360" fill="none" stroke="none" visibility="hidden"></rect></g></svg></g></svg>